<svg xmlns="http://www.w3.org/2000/svg" viewBox="0 0 512 512">
  <defs>
    <linearGradient id="g1" x1="0%" y1="0%" x2="100%" y2="100%">
      <stop offset="0%" stop-color="#7EC8F2"/>
      <stop offset="50%" stop-color="#3B9FE3"/>
      <stop offset="100%" stop-color="#1A5FB4"/>
    </linearGradient>
    <linearGradient id="g2" x1="0%" y1="0%" x2="100%" y2="100%">
      <stop offset="0%" stop-color="#4DB8F0"/>
      <stop offset="50%" stop-color="#2580D0"/>
      <stop offset="100%" stop-color="#0D4A8A"/>
    </linearGradient>
    <linearGradient id="g3" x1="100%" y1="0%" x2="0%" y2="100%">
      <stop offset="0%" stop-color="#B8D8F8"/>
      <stop offset="50%" stop-color="#6AB4E8"/>
      <stop offset="100%" stop-color="#2878C0"/>
    </linearGradient>
    <linearGradient id="g4" x1="0%" y1="100%" x2="100%" y2="0%">
      <stop offset="0%" stop-color="#0D3B6E"/>
      <stop offset="50%" stop-color="#1860A8"/>
      <stop offset="100%" stop-color="#3898D8"/>
    </linearGradient>
  </defs>
  <!-- Top cylinder -->
  <ellipse cx="256" cy="100" rx="160" ry="50" fill="url(#g3)" opacity="0.9"/>
  <path d="M96 100 v0 C96 100 140 180 256 180 S416 100 416 100 v50 C416 150 372 230 256 230 S96 150 96 150 Z" fill="url(#g1)"/>
  <ellipse cx="256" cy="100" rx="160" ry="50" fill="url(#g3)" opacity="0.7"/>
  <!-- Middle twisted band -->
  <path d="M96 200 C96 200 180 130 256 210 S416 280 416 200" stroke="url(#g2)" stroke-width="55" fill="none" opacity="0.85"/>
  <!-- Middle cylinder -->
  <ellipse cx="256" cy="256" rx="160" ry="50" fill="url(#g1)" opacity="0.8"/>
  <path d="M96 256 v0 C96 256 140 336 256 336 S416 256 416 256 v50 C416 306 372 386 256 386 S96 306 96 306 Z" fill="url(#g2)"/>
  <!-- Bottom cylinder -->
  <ellipse cx="256" cy="412" rx="160" ry="50" fill="url(#g4)"/>
  <path d="M96 362 v50 C96 412 140 462 256 462 S416 412 416 412 v-50" fill="url(#g4)" opacity="0.9"/>
  <!-- Cross ribbon effect -->
  <path d="M130 150 C180 250 332 200 380 310" stroke="url(#g3)" stroke-width="40" fill="none" opacity="0.5" stroke-linecap="round"/>
  <path d="M380 150 C332 250 180 200 130 310" stroke="url(#g2)" stroke-width="40" fill="none" opacity="0.5" stroke-linecap="round"/>
</svg>